solid CATIA STL
  facet normal  0.000000e+000  0.000000e+000  1.000000e+000
    outer loop
      vertex -1.500000e+000 -2.598076e+000  1.235280e+002
      vertex -4.330127e+000 -2.500000e+000  1.235280e+002
      vertex -2.500000e+000 -4.330127e+000  1.235280e+002
    endloop
  endfacet
  facet normal  0.000000e+000  0.000000e+000  1.000000e+000
    outer loop
      vertex  1.500000e+000  2.598076e+000  1.235280e+002
      vertex  4.330127e+000  2.500000e+000  1.235280e+002
      vertex  2.500000e+000  4.330127e+000  1.235280e+002
    endloop
  endfacet
  facet normal  0.000000e+000  0.000000e+000  1.000000e+000
    outer loop
      vertex -1.500000e+000  2.598076e+000  1.235280e+002
      vertex  1.500000e+000  2.598076e+000  1.235280e+002
      vertex -2.480844e-015  3.000000e+000  1.235280e+002
    endloop
  endfacet
  facet normal  0.000000e+000  0.000000e+000  1.000000e+000
    outer loop
      vertex  2.500000e+000 -4.330127e+000  1.235280e+002
      vertex  4.330127e+000 -2.500000e+000  1.235280e+002
      vertex  1.500000e+000 -2.598076e+000  1.235280e+002
    endloop
  endfacet
  facet normal  0.000000e+000  0.000000e+000  1.000000e+000
    outer loop
      vertex -2.500000e+000  4.330127e+000  1.235280e+002
      vertex -4.330127e+000  2.500000e+000  1.235280e+002
      vertex -1.500000e+000  2.598076e+000  1.235280e+002
    endloop
  endfacet
  facet normal  -0.000000e+000  0.000000e+000  1.000000e+000
    outer loop
      vertex  1.500000e+000  2.598076e+000  1.235280e+002
      vertex -1.500000e+000  2.598076e+000  1.235280e+002
      vertex  4.330127e+000  2.500000e+000  1.235280e+002
    endloop
  endfacet
  facet normal  0.000000e+000  0.000000e+000  1.000000e+000
    outer loop
      vertex  4.330127e+000  2.500000e+000  1.235280e+002
      vertex -1.500000e+000  2.598076e+000  1.235280e+002
      vertex -4.330127e+000  2.500000e+000  1.235280e+002
    endloop
  endfacet
  facet normal  -0.000000e+000  0.000000e+000  1.000000e+000
    outer loop
      vertex  4.330127e+000  2.500000e+000  1.235280e+002
      vertex -4.330127e+000  2.500000e+000  1.235280e+002
      vertex  5.000000e+000  3.216286e-015  1.235280e+002
    endloop
  endfacet
  facet normal  0.000000e+000  0.000000e+000  1.000000e+000
    outer loop
      vertex  5.000000e+000  3.216286e-015  1.235280e+002
      vertex -4.330127e+000  2.500000e+000  1.235280e+002
      vertex -5.000000e+000  6.123032e-016  1.235280e+002
    endloop
  endfacet
  facet normal  -0.000000e+000  0.000000e+000  1.000000e+000
    outer loop
      vertex  5.000000e+000  3.216286e-015  1.235280e+002
      vertex -5.000000e+000  6.123032e-016  1.235280e+002
      vertex  4.330127e+000 -2.500000e+000  1.235280e+002
    endloop
  endfacet
  facet normal  0.000000e+000  0.000000e+000  1.000000e+000
    outer loop
      vertex  4.330127e+000 -2.500000e+000  1.235280e+002
      vertex -5.000000e+000  6.123032e-016  1.235280e+002
      vertex -4.330127e+000 -2.500000e+000  1.235280e+002
    endloop
  endfacet
  facet normal  -0.000000e+000  0.000000e+000  1.000000e+000
    outer loop
      vertex  4.330127e+000 -2.500000e+000  1.235280e+002
      vertex -4.330127e+000 -2.500000e+000  1.235280e+002
      vertex  1.500000e+000 -2.598076e+000  1.235280e+002
    endloop
  endfacet
  facet normal  0.000000e+000  0.000000e+000  1.000000e+000
    outer loop
      vertex  1.500000e+000 -2.598076e+000  1.235280e+002
      vertex -4.330127e+000 -2.500000e+000  1.235280e+002
      vertex -1.500000e+000 -2.598076e+000  1.235280e+002
    endloop
  endfacet
  facet normal  -0.000000e+000  0.000000e+000  1.000000e+000
    outer loop
      vertex  1.500000e+000 -2.598076e+000  1.235280e+002
      vertex -1.500000e+000 -2.598076e+000  1.235280e+002
      vertex -5.510729e-016 -3.000000e+000  1.235280e+002
    endloop
  endfacet
  facet normal  0.000000e+000  0.000000e+000 -1.000000e+000
    outer loop
      vertex -2.500000e+000 -4.330127e+000 -7.352800e+001
      vertex -4.330127e+000 -2.500000e+000 -7.352800e+001
      vertex -1.500000e+000 -2.598076e+000 -7.352800e+001
    endloop
  endfacet
  facet normal  0.000000e+000  0.000000e+000 -1.000000e+000
    outer loop
      vertex  2.500000e+000  4.330127e+000 -7.352800e+001
      vertex  4.330127e+000  2.500000e+000 -7.352800e+001
      vertex  1.500000e+000  2.598076e+000 -7.352800e+001
    endloop
  endfacet
  facet normal  0.000000e+000  0.000000e+000 -1.000000e+000
    outer loop
      vertex -2.480844e-015  3.000000e+000 -7.352800e+001
      vertex  1.500000e+000  2.598076e+000 -7.352800e+001
      vertex -1.500000e+000  2.598076e+000 -7.352800e+001
    endloop
  endfacet
  facet normal  0.000000e+000  0.000000e+000 -1.000000e+000
    outer loop
      vertex  1.500000e+000 -2.598076e+000 -7.352800e+001
      vertex  4.330127e+000 -2.500000e+000 -7.352800e+001
      vertex  2.500000e+000 -4.330127e+000 -7.352800e+001
    endloop
  endfacet
  facet normal  0.000000e+000  0.000000e+000 -1.000000e+000
    outer loop
      vertex -1.500000e+000  2.598076e+000 -7.352800e+001
      vertex -4.330127e+000  2.500000e+000 -7.352800e+001
      vertex -2.500000e+000  4.330127e+000 -7.352800e+001
    endloop
  endfacet
  facet normal  0.000000e+000  0.000000e+000 -1.000000e+000
    outer loop
      vertex -5.510729e-016 -3.000000e+000 -7.352800e+001
      vertex -1.500000e+000 -2.598076e+000 -7.352800e+001
      vertex  1.500000e+000 -2.598076e+000 -7.352800e+001
    endloop
  endfacet
  facet normal  0.000000e+000  0.000000e+000 -1.000000e+000
    outer loop
      vertex  1.500000e+000 -2.598076e+000 -7.352800e+001
      vertex -1.500000e+000 -2.598076e+000 -7.352800e+001
      vertex -4.330127e+000 -2.500000e+000 -7.352800e+001
    endloop
  endfacet
  facet normal  0.000000e+000  0.000000e+000 -1.000000e+000
    outer loop
      vertex  1.500000e+000 -2.598076e+000 -7.352800e+001
      vertex -4.330127e+000 -2.500000e+000 -7.352800e+001
      vertex  4.330127e+000 -2.500000e+000 -7.352800e+001
    endloop
  endfacet
  facet normal  0.000000e+000  0.000000e+000 -1.000000e+000
    outer loop
      vertex  4.330127e+000 -2.500000e+000 -7.352800e+001
      vertex -4.330127e+000 -2.500000e+000 -7.352800e+001
      vertex -5.000000e+000  6.123032e-016 -7.352800e+001
    endloop
  endfacet
  facet normal  0.000000e+000  0.000000e+000 -1.000000e+000
    outer loop
      vertex  4.330127e+000 -2.500000e+000 -7.352800e+001
      vertex -5.000000e+000  6.123032e-016 -7.352800e+001
      vertex  5.000000e+000  3.216286e-015 -7.352800e+001
    endloop
  endfacet
  facet normal  -0.000000e+000  0.000000e+000 -1.000000e+000
    outer loop
      vertex  5.000000e+000  3.216286e-015 -7.352800e+001
      vertex -5.000000e+000  6.123032e-016 -7.352800e+001
      vertex -4.330127e+000  2.500000e+000 -7.352800e+001
    endloop
  endfacet
  facet normal  0.000000e+000  0.000000e+000 -1.000000e+000
    outer loop
      vertex  5.000000e+000  3.216286e-015 -7.352800e+001
      vertex -4.330127e+000  2.500000e+000 -7.352800e+001
      vertex  4.330127e+000  2.500000e+000 -7.352800e+001
    endloop
  endfacet
  facet normal  0.000000e+000  0.000000e+000 -1.000000e+000
    outer loop
      vertex  4.330127e+000  2.500000e+000 -7.352800e+001
      vertex -4.330127e+000  2.500000e+000 -7.352800e+001
      vertex -1.500000e+000  2.598076e+000 -7.352800e+001
    endloop
  endfacet
  facet normal  0.000000e+000  0.000000e+000 -1.000000e+000
    outer loop
      vertex  4.330127e+000  2.500000e+000 -7.352800e+001
      vertex -1.500000e+000  2.598076e+000 -7.352800e+001
      vertex  1.500000e+000  2.598076e+000 -7.352800e+001
    endloop
  endfacet
  facet normal  8.660254e-001  4.999999e-001  0.000000e+000
    outer loop
      vertex -1.500000e+000  2.598076e+000 -7.352800e+001
      vertex -2.500000e+000  4.330127e+000 -7.352800e+001
      vertex -1.500000e+000  2.598076e+000  1.235280e+002
    endloop
  endfacet
  facet normal  8.660254e-001  4.999999e-001  0.000000e+000
    outer loop
      vertex -1.500000e+000  2.598076e+000  1.235280e+002
      vertex -2.500000e+000  4.330127e+000 -7.352800e+001
      vertex -2.500000e+000  4.330127e+000  1.235280e+002
    endloop
  endfacet
  facet normal -2.588191e-001  9.659258e-001  0.000000e+000
    outer loop
      vertex -1.500000e+000  2.598076e+000 -7.352800e+001
      vertex -1.500000e+000  2.598076e+000  1.235280e+002
      vertex -2.480844e-015  3.000000e+000 -7.352800e+001
    endloop
  endfacet
  facet normal -2.588191e-001  9.659258e-001  0.000000e+000
    outer loop
      vertex -2.480844e-015  3.000000e+000 -7.352800e+001
      vertex -1.500000e+000  2.598076e+000  1.235280e+002
      vertex -2.480844e-015  3.000000e+000  1.235280e+002
    endloop
  endfacet
  facet normal  2.588191e-001  9.659258e-001  0.000000e+000
    outer loop
      vertex -2.480844e-015  3.000000e+000 -7.352800e+001
      vertex -2.480844e-015  3.000000e+000  1.235280e+002
      vertex  1.500000e+000  2.598076e+000 -7.352800e+001
    endloop
  endfacet
  facet normal  2.588191e-001  9.659258e-001  -0.000000e+000
    outer loop
      vertex  1.500000e+000  2.598076e+000 -7.352800e+001
      vertex -2.480844e-015  3.000000e+000  1.235280e+002
      vertex  1.500000e+000  2.598076e+000  1.235280e+002
    endloop
  endfacet
  facet normal -8.660254e-001  4.999999e-001  0.000000e+000
    outer loop
      vertex  2.500000e+000  4.330127e+000 -7.352800e+001
      vertex  1.500000e+000  2.598076e+000 -7.352800e+001
      vertex  2.500000e+000  4.330127e+000  1.235280e+002
    endloop
  endfacet
  facet normal -8.660254e-001  4.999999e-001  0.000000e+000
    outer loop
      vertex  2.500000e+000  4.330127e+000  1.235280e+002
      vertex  1.500000e+000  2.598076e+000 -7.352800e+001
      vertex  1.500000e+000  2.598076e+000  1.235280e+002
    endloop
  endfacet
  facet normal  7.071068e-001  7.071068e-001  0.000000e+000
    outer loop
      vertex  2.500000e+000  4.330127e+000 -7.352800e+001
      vertex  2.500000e+000  4.330127e+000  1.235280e+002
      vertex  4.330127e+000  2.500000e+000 -7.352800e+001
    endloop
  endfacet
  facet normal  7.071068e-001  7.071068e-001  -0.000000e+000
    outer loop
      vertex  4.330127e+000  2.500000e+000 -7.352800e+001
      vertex  2.500000e+000  4.330127e+000  1.235280e+002
      vertex  4.330127e+000  2.500000e+000  1.235280e+002
    endloop
  endfacet
  facet normal  9.659259e-001  2.588190e-001  0.000000e+000
    outer loop
      vertex  4.330127e+000  2.500000e+000 -7.352800e+001
      vertex  4.330127e+000  2.500000e+000  1.235280e+002
      vertex  5.000000e+000  3.216286e-015 -7.352800e+001
    endloop
  endfacet
  facet normal  9.659259e-001  2.588190e-001  -0.000000e+000
    outer loop
      vertex  5.000000e+000  3.216286e-015 -7.352800e+001
      vertex  4.330127e+000  2.500000e+000  1.235280e+002
      vertex  5.000000e+000  3.216286e-015  1.235280e+002
    endloop
  endfacet
  facet normal  9.659259e-001 -2.588190e-001  0.000000e+000
    outer loop
      vertex  5.000000e+000  3.216286e-015 -7.352800e+001
      vertex  5.000000e+000  3.216286e-015  1.235280e+002
      vertex  4.330127e+000 -2.500000e+000 -7.352800e+001
    endloop
  endfacet
  facet normal  9.659259e-001 -2.588190e-001  0.000000e+000
    outer loop
      vertex  4.330127e+000 -2.500000e+000 -7.352800e+001
      vertex  5.000000e+000  3.216286e-015  1.235280e+002
      vertex  4.330127e+000 -2.500000e+000  1.235280e+002
    endloop
  endfacet
  facet normal  7.071068e-001 -7.071068e-001  0.000000e+000
    outer loop
      vertex  4.330127e+000 -2.500000e+000 -7.352800e+001
      vertex  4.330127e+000 -2.500000e+000  1.235280e+002
      vertex  2.500000e+000 -4.330127e+000 -7.352800e+001
    endloop
  endfacet
  facet normal  7.071068e-001 -7.071068e-001  0.000000e+000
    outer loop
      vertex  2.500000e+000 -4.330127e+000 -7.352800e+001
      vertex  4.330127e+000 -2.500000e+000  1.235280e+002
      vertex  2.500000e+000 -4.330127e+000  1.235280e+002
    endloop
  endfacet
  facet normal -8.660254e-001 -4.999999e-001  -0.000000e+000
    outer loop
      vertex  2.500000e+000 -4.330127e+000 -7.352800e+001
      vertex  2.500000e+000 -4.330127e+000  1.235280e+002
      vertex  1.500000e+000 -2.598076e+000 -7.352800e+001
    endloop
  endfacet
  facet normal -8.660254e-001 -4.999999e-001  0.000000e+000
    outer loop
      vertex  1.500000e+000 -2.598076e+000 -7.352800e+001
      vertex  2.500000e+000 -4.330127e+000  1.235280e+002
      vertex  1.500000e+000 -2.598076e+000  1.235280e+002
    endloop
  endfacet
  facet normal  2.588191e-001 -9.659258e-001  0.000000e+000
    outer loop
      vertex  1.500000e+000 -2.598076e+000 -7.352800e+001
      vertex  1.500000e+000 -2.598076e+000  1.235280e+002
      vertex -5.510729e-016 -3.000000e+000 -7.352800e+001
    endloop
  endfacet
  facet normal  2.588191e-001 -9.659258e-001  0.000000e+000
    outer loop
      vertex -5.510729e-016 -3.000000e+000 -7.352800e+001
      vertex  1.500000e+000 -2.598076e+000  1.235280e+002
      vertex -5.510729e-016 -3.000000e+000  1.235280e+002
    endloop
  endfacet
  facet normal -2.588191e-001 -9.659258e-001  -0.000000e+000
    outer loop
      vertex -5.510729e-016 -3.000000e+000 -7.352800e+001
      vertex -5.510729e-016 -3.000000e+000  1.235280e+002
      vertex -1.500000e+000 -2.598076e+000 -7.352800e+001
    endloop
  endfacet
  facet normal -2.588191e-001 -9.659258e-001  0.000000e+000
    outer loop
      vertex -1.500000e+000 -2.598076e+000 -7.352800e+001
      vertex -5.510729e-016 -3.000000e+000  1.235280e+002
      vertex -1.500000e+000 -2.598076e+000  1.235280e+002
    endloop
  endfacet
  facet normal  8.660254e-001 -4.999999e-001  0.000000e+000
    outer loop
      vertex -1.500000e+000 -2.598076e+000 -7.352800e+001
      vertex -1.500000e+000 -2.598076e+000  1.235280e+002
      vertex -2.500000e+000 -4.330127e+000 -7.352800e+001
    endloop
  endfacet
  facet normal  8.660254e-001 -4.999999e-001  0.000000e+000
    outer loop
      vertex -2.500000e+000 -4.330127e+000 -7.352800e+001
      vertex -1.500000e+000 -2.598076e+000  1.235280e+002
      vertex -2.500000e+000 -4.330127e+000  1.235280e+002
    endloop
  endfacet
  facet normal -7.071068e-001 -7.071068e-001  -0.000000e+000
    outer loop
      vertex -2.500000e+000 -4.330127e+000 -7.352800e+001
      vertex -2.500000e+000 -4.330127e+000  1.235280e+002
      vertex -4.330127e+000 -2.500000e+000 -7.352800e+001
    endloop
  endfacet
  facet normal -7.071068e-001 -7.071068e-001  0.000000e+000
    outer loop
      vertex -4.330127e+000 -2.500000e+000 -7.352800e+001
      vertex -2.500000e+000 -4.330127e+000  1.235280e+002
      vertex -4.330127e+000 -2.500000e+000  1.235280e+002
    endloop
  endfacet
  facet normal -9.659259e-001 -2.588190e-001  -0.000000e+000
    outer loop
      vertex -4.330127e+000 -2.500000e+000 -7.352800e+001
      vertex -4.330127e+000 -2.500000e+000  1.235280e+002
      vertex -5.000000e+000  6.123032e-016 -7.352800e+001
    endloop
  endfacet
  facet normal -9.659259e-001 -2.588190e-001  0.000000e+000
    outer loop
      vertex -5.000000e+000  6.123032e-016 -7.352800e+001
      vertex -4.330127e+000 -2.500000e+000  1.235280e+002
      vertex -5.000000e+000  6.123032e-016  1.235280e+002
    endloop
  endfacet
  facet normal -9.659259e-001  2.588190e-001  0.000000e+000
    outer loop
      vertex -5.000000e+000  6.123032e-016 -7.352800e+001
      vertex -5.000000e+000  6.123032e-016  1.235280e+002
      vertex -4.330127e+000  2.500000e+000 -7.352800e+001
    endloop
  endfacet
  facet normal -9.659259e-001  2.588190e-001  0.000000e+000
    outer loop
      vertex -4.330127e+000  2.500000e+000 -7.352800e+001
      vertex -5.000000e+000  6.123032e-016  1.235280e+002
      vertex -4.330127e+000  2.500000e+000  1.235280e+002
    endloop
  endfacet
  facet normal -7.071068e-001  7.071068e-001  0.000000e+000
    outer loop
      vertex -4.330127e+000  2.500000e+000 -7.352800e+001
      vertex -4.330127e+000  2.500000e+000  1.235280e+002
      vertex -2.500000e+000  4.330127e+000 -7.352800e+001
    endloop
  endfacet
  facet normal -7.071068e-001  7.071068e-001  0.000000e+000
    outer loop
      vertex -2.500000e+000  4.330127e+000 -7.352800e+001
      vertex -4.330127e+000  2.500000e+000  1.235280e+002
      vertex -2.500000e+000  4.330127e+000  1.235280e+002
    endloop
  endfacet
endsolid CATIA STL
